<svg id="Layer_1" data-name="Layer 1" xmlns="http://www.w3.org/2000/svg" viewBox="0 0 788 788"><defs><style>.cls-1{fill:#fff;}.cls-2{fill:#0091ce;}.cls-3{fill:#005da9;}.cls-4{fill:#015daa;}.cls-5{fill:#fefefe;}.cls-6{fill:#fcfcfd;}.cls-7{fill:#fcfdfd;}.cls-8{fill:#f7f9fc;}.cls-9{fill:#f8fafc;}</style></defs><title>Untitled-1</title><g id="ggwp"><path class="cls-1" d="M400,793.1c-12.6,0-25.3-.6-37.6-1.8a393.2,393.2,0,0,1,0-782.7c12.4-1.2,25.1-1.8,37.6-1.8A393.3,393.3,0,0,1,553,762.2,390.7,390.7,0,0,1,400,793.1Z" transform="translate(-6 -6)"/><path d="M400,7.7A392.4,392.4,0,0,1,552.7,761.5,389.8,389.8,0,0,1,400,792.3c-12.6,0-25.2-.6-37.6-1.8a392.3,392.3,0,0,1,0-781.1c12.4-1.2,25-1.8,37.6-1.8M400,6q-19.1,0-37.7,1.8C162.4,26.8,6,195.1,6,400S162.4,773.2,362.3,792.2Q380.9,794,400,794c217.6,0,394-176.4,394-394S617.6,6,400,6Z" transform="translate(-6 -6)"/><path class="cls-2" d="M446.1,112.6l2.3,2.6L588.2,255l2.6,2.8c-1.2.9-2.4.5-3.5.5H531.1a7.1,7.1,0,0,1-5.5-2.3l-77.3-77.5c-1.9-1.9-2.9-2.2-5-.1l-104,104.2a6.7,6.7,0,0,1-5.2,2.2H274.5c0-1.3,1-1.7,1.6-2.4s1.2-1.2,1.8-1.8L444,114.2l1.5-1.6Z" transform="translate(-6 -6)"/><path class="cls-2" d="M97.7,403.3c.5-.1.6-.5.7-.9,3.2-16.5,13.9-26.5,28.8-32.7,13.2-5.5,27.1-7.2,41.2-7.5,5.6-.1,5.7-.2,4.3-5.8s-7.9-11.2-16.9-12c-13.7-1.3-26.7,1.7-38.9,7.8-2.1,1.1-2.9,1.2-3.5-1.4-1.7-6.7-3.7-13.4-5.8-20.1-.7-2.3-.3-3.4,1.9-4.4a107.8,107.8,0,0,1,41.9-10c9-.4,18,0,26.7,2.4,19.9,5.5,32.1,19.9,34.5,40.7a114.4,114.4,0,0,1,.7,12.6c.1,20.4-.5,40.8.6,61.2.2,4.1.7,8.2,1.3,12.3.3,2-.2,2.6-2.2,2.6H181.5c-1.7,0-2.4-.5-2.6-2.3-.5-3.5-1.3-7-2.1-11.5-1.5,1.9-2.4,3.2-3.5,4.3-15,15.1-46.7,17.5-63.2,1.7a39.4,39.4,0,0,1-11-18.5c-.3-1-.1-2.3-1.2-3.1Z" transform="translate(-6 -6)"/><path class="cls-2" d="M398.1,337.3c9.6-14.2,22.4-21,38.6-21.2s29,6.4,36.3,21.7c1.2.1,1.4-1.1,2-1.7,12.5-15.8,28.7-22.5,48.6-19.1,17,2.9,26.5,14.2,31.4,30a77.2,77.2,0,0,1,3.3,23.1c0,24.9,0,49.7.1,74.6,0,2.9-.8,3.5-3.5,3.4q-16.3-.2-32.7,0c-2.5,0-3.2-.7-3.2-3.2.1-23,0-45.9.1-68.9a45.3,45.3,0,0,0-2-14.1c-2.2-6.9-6.3-12-13.9-13.1s-14.2,2.1-18.8,8.6c-3.1,4.4-3.9,9.5-3.9,14.8q-.1,36.2,0,72.4c0,2.8-.7,3.5-3.5,3.5-10.8-.2-21.6-.2-32.4,0-2.6,0-3.4-.7-3.4-3.3q.2-34.3,0-68.5a45,45,0,0,0-2.3-15.3c-4.8-13.5-20.6-16.6-30.3-5.9-4.7,5.2-6.4,11.5-6.4,18.4,0,23.7,0,47.4.1,71.1,0,2.7-.4,3.6-3.4,3.6q-16.2-.3-32.4,0c-2.9.1-3.4-.9-3.4-3.6.1-27.4,0-54.8.1-82.2,0-13.5-.2-27.1-1-40.6-.1-2.4.6-2.8,2.8-2.8q14.3.2,28.6,0c2.1,0,2.9.5,3,2.7C397,326.6,397.6,331.5,398.1,337.3Z" transform="translate(-6 -6)"/><path class="cls-2" d="M591.3,542.7l-2.9,3.1Q518.3,615.9,448.2,686c-2.1,2.1-3.1,1.9-5-.1l-87.7-87.8-79.1-79.3-2.6-2.8h60.1a7,7,0,0,1,5.5,2.3l104,104.2c1.9,1.9,2.8,2,4.8,0q38.5-38.9,77.2-77.6a7.4,7.4,0,0,1,5.8-2.5h60.1Z" transform="translate(-6 -6)"/><path class="cls-3" d="M554.4,515.4a27.4,27.4,0,0,0,3-2.3q55-54.9,110-109.9c2.4-2.4,2.1-3.5-.1-5.7q-55.2-55-110.2-110.1c-.7-.7-1.6-1.4-2.3-2s1.4-.8,2.1-.8h58.7a5.3,5.3,0,0,1,4.1,1.8L731.8,398.6c1.7,1.6,1.4,2.4-.1,3.9l-79.5,79.4-32.5,32.6c-1,1-1.8,1.9-3.4,1.9H555.1Z" transform="translate(-6 -6)"/><path class="cls-2" d="M305.3,316.1a100.2,100.2,0,0,1,29,4.1c1.7.5,2.4,1.2,2,3.1-1.9,8.2-3.7,16.5-5.3,24.8-.5,2.4-1,2.8-3.4,2a52.8,52.8,0,0,0-26.9-2.3c-15.2,2.7-25.6,14.4-27,29.8-.6,6.8-.3,13.5,2.1,20,5.9,15.9,19.8,22.2,34.3,21.9a54.9,54.9,0,0,0,19.8-3.6c1.4-.6,1.8-.3,2.1,1.2,1.4,8.8,2.7,17.5,4.2,26.3.3,1.9-.8,2.1-2,2.6a73.2,73.2,0,0,1-17.8,4.1c-14.2,1.7-28.3,1.7-42-2.9-24.1-8.1-37.6-25.2-41.3-50.1-2.3-15.6-.7-30.8,6.6-45,10.2-19.8,27.2-30.3,48.6-34.4A101.7,101.7,0,0,1,305.3,316.1Z" transform="translate(-6 -6)"/><path class="cls-3" d="M250.6,474.1c0-2.7.1-5,0-7.3s.2-2.6,2.4-2.6c5.2.1,5.2-.1,5.2,5.2,0,7.5-.1,15,.1,22.5,0,1.8-.5,2.2-2.1,2.1-3.5-.1-6.9-.4-10.4.4s-7.8-2-9-6-1.3-8.9,2.1-12.5S246.1,472.6,250.6,474.1Z" transform="translate(-6 -6)"/><path class="cls-3" d="M412.4,493.8a38.9,38.9,0,0,1,0,4.1c-.2,1.4.9,3.5-.7,4s-4,.3-6,.2-.8-1.1-.8-1.7c0-8.4-.1-16.7-.1-25.1,0-1,.2-1.8,1.3-1.5s3.7-1,5.3.8,1.3-.3,1.9-.5c6.4-2.7,12.1.2,13.3,7C428.4,490.6,422.7,495.8,412.4,493.8Z" transform="translate(-6 -6)"/><path class="cls-4" d="M364.1,474.6a9.4,9.4,0,0,1,6.8-1.4,6.3,6.3,0,0,1,5.3,4.9c1.2,4.8.4,9.7.6,14.5,0,.9-.5,1.2-1.4,1.3-5.2.9-6.1.2-6.1-5.1,0-2.3.1-4.7-.1-7s-.7-3.1-2.6-3-2.5,1.5-2.5,3.1c-.1,3.2-.1,6.4,0,9.5s-.7,2.7-2.5,2.4a8.2,8.2,0,0,0-2.2,0c-2.2.3-2.9-.5-2.8-2.7.1-8,.2-16.1,0-24.1,0-2.4.6-3.3,3-2.9a12.1,12.1,0,0,0,2.9,0c1.4-.1,1.8.5,1.8,1.9S364.1,471.4,364.1,474.6Z" transform="translate(-6 -6)"/><path class="cls-4" d="M232.8,483.9c0,2.6-.1,5.3,0,7.9s-.4,2.2-2.1,2.2c-3.3-.1-6.4-.4-9.8.4s-7.8-1.7-8.2-6.5-.1-8.5-.2-12.7c0-1.1.4-1.4,1.5-1.5,5.8-.7,6-.5,6,5.2,0,2.2,0,4.4.1,6.7s.6,3.2,2.4,3.2,2.7-1.5,2.7-3.3.1-6.3,0-9.5.5-2.3,2.3-2.3c5.2,0,5.2-.1,5.2,5.1v5.1Z" transform="translate(-6 -6)"/><path class="cls-4" d="M286.2,483.3c0-1.8-.1-3.6,0-5.4s-.8-3.4.3-3.8a7.6,7.6,0,0,1,5.5-.1,2.5,2.5,0,0,0,2.6,0c6-2.7,11,.1,11.6,6.6.4,3.9.1,7.8.2,11.7,0,1.2-.5,1.6-1.7,1.7-5.8.6-5.8.7-5.8-5.1,0-2.3.1-4.7-.1-7s-.7-3.1-2.5-3-2.5,1.5-2.5,3.1c-.1,3.2-.1,6.3,0,9.5s-.6,2.7-2.5,2.5h-1.9c-2.4.4-3.4-.4-3.2-3S286.2,485.8,286.2,483.3Z" transform="translate(-6 -6)"/><path class="cls-4" d="M399.9,486.6c0,.9,0,1.9,0,2.8,0,4.9,0,5.1-4.8,4.4-2-.3-3.7.3-5.6.6s-5.8.1-7.6-2.6a6.9,6.9,0,0,1-.2-7.8,7.3,7.3,0,0,1,4.8-3.3c1.4-.4,2.9-.5,4.4-.7s1.2.1,1.2-.7-.4-.9-.9-1.1a6.5,6.5,0,0,0-5.2.3c-1.9.8-2.8.4-3.4-1.7s.4-2.6,1.9-3a21.8,21.8,0,0,1,7.8-.7c4.7.3,7.3,3,7.5,7.7.1,1.9,0,3.8,0,5.7Z" transform="translate(-6 -6)"/><path class="cls-4" d="M269.3,485.7c2,3.7,3.7,4.6,8.2,3.2,2.9-.9,3.1.6,3.5,2.5s-.2,2.2-1.6,2.4a27.7,27.7,0,0,1-7.5.6c-4-.4-7.5-1.8-9-5.9s-1.3-8.8,2-12.5,7.3-3.7,11.4-2.6,7.2,6.9,6,11c-.4,1.4-1.3,1.1-2.2,1.1Z" transform="translate(-6 -6)"/><path class="cls-4" d="M459.1,485.7h-4.8c-.5,0-1.2-.2-1.3.4a1.9,1.9,0,0,0,.5,1.4c2.1,2.2,4.7,2.3,7.3,1.4s3.1-.3,3.6,2.1-1,2.8-2.7,3a25,25,0,0,1-6.9.4c-4.1-.5-7.3-2.2-8.6-6.4s-1-8.9,2.6-12.3,7.4-3.3,11.6-2,6.5,6.8,5.5,10.7c-.3,1.1-1,1.2-1.9,1.2Z" transform="translate(-6 -6)"/><path class="cls-4" d="M208.6,476.6c.4,1.8-.5,2.6-2.4,2.3s-2.1.6-2,2.2,0,3.6.1,5.4.5,2.6,1.9,2.5c2.9-.3,2.1,1.7,2.3,3.3s-1.4,2.1-2.8,2.3c-5.6.7-8.4-1.5-8.7-7.2-.1-1.7.1-3.4-.1-5.1s.9-3.4-2-3.6c-1.2-.1-.4-2.2-.6-3.4s0-1.6,1.1-1.5,1.6-.5,1.6-1.7-.7-2.3.7-2.7a19.7,19.7,0,0,1,5.8-1.1c1.4,0,.8,1.7.7,2.6s.1,3.4,2.6,2.9S208.6,475.1,208.6,476.6Z" transform="translate(-6 -6)"/><path class="cls-4" d="M323.2,491.6c.4,1.9-.4,2.6-2.5,2.8-6,.7-8.8-1.5-9.1-7.5-.1-1.9,0-3.8,0-5.7s.3-2.4-1.8-2.5-.7-1.9-.8-2.8-.6-2.1,1-2.1,1.6-.5,1.6-1.7-.7-2.3.7-2.7a19.7,19.7,0,0,1,5.8-1.1c1.4,0,.8,1.7.7,2.6s.1,3.4,2.6,2.9,1.8,1.3,1.9,2.6-.1,2.8-2.1,2.4-2.5.7-2.4,2.5,0,3.4.1,5.1.6,2.6,2.2,2.5S323.3,490.1,323.2,491.6Z" transform="translate(-6 -6)"/><path class="cls-4" d="M438.6,494.6c-4.8,0-7-1.8-7.5-6.3-.2-2.1-.1-4.2-.2-6.3s.7-3.1-2-3.3-.5-2-.6-3-.4-1.9,1-1.8,1.6-.8,1.6-2-.6-2.3,1-2.6,3.9-1.5,5.8-1,.6,1.9.5,2.8.3,3,2.5,2.7,1.9,1.2,2,2.6,0,2.8-2.1,2.5-2.6.5-2.4,2.4,0,3.4.1,5.1.5,2.7,2.1,2.5,1.9,1.5,2,2.9-.3,2.7-2.2,2.6A9.6,9.6,0,0,0,438.6,494.6Z" transform="translate(-6 -6)"/><path class="cls-4" d="M182.7,494.7l-3.8-.6c-3-.6-3.8-2.6-2.1-5.2.7-1.1,1.4-.6,2.2-.3a10.8,10.8,0,0,0,4,1,1.6,1.6,0,0,0,1.7-1.1c.3-.9-.4-1.3-1.1-1.7s-2.7-1.1-4-1.8a5.5,5.5,0,0,1-3.2-5.4,6.1,6.1,0,0,1,3.6-5.5c3.2-1.5,6.6-1.2,9.9-.3s.9,2,.7,3.1-.3,2.4-2.1,1.9-4-2-4.6.3,2.3,2,3.7,2.6c2.9,1.3,4.6,3.3,4.5,6.5s-2.2,5.2-5.6,5.9Z" transform="translate(-6 -6)"/><path class="cls-4" d="M348.2,473.1h2c1.5.3,3.3.2,2.6,2.8s-.6,3.5-3.3,2.6-4.2.3-5.4,2.2a5.2,5.2,0,0,0-.1,5.7,4.7,4.7,0,0,0,5.4,2.4c2.2-.6,3.1-.3,3.5,2.2s-1,2.9-2.9,3.2c-10.1,1.6-16.6-5.2-13.7-14.1C337.8,475.7,341.8,473.1,348.2,473.1Z" transform="translate(-6 -6)"/><path class="cls-4" d="M469.6,483.5c0-2.5.1-5.1,0-7.6s.2-2.5,2-2.2,3.2-.8,4.7.8,1.4-.6,2.1-.8,3.5-1.4,4.4-.2.5,3.7.2,5.5-1.1.4-1.6.4c-2.9.2-4.2,1.7-4.1,4.5s-.1,5.1,0,7.6-.4,2.6-2.3,2.4a11.3,11.3,0,0,0-2.8,0c-2,.3-2.5-.6-2.4-2.5s0-5.3,0-7.9Z" transform="translate(-6 -6)"/><path class="cls-5" d="M174.5,396.5c0,1.8,0,3.6,0,5.4-.1,13.3-13.5,23.5-26.3,20.1-5.4-1.4-9.1-4.6-10.3-10s-.4-12.3,4.7-16.8,11.7-6.1,18.3-7.1c3.7-.6,7.4-.6,11-.9,1.9-.1,2.7.3,2.6,2.3S174.5,394.2,174.5,396.5Z" transform="translate(-6 -6)"/><path class="cls-6" d="M250.8,483.6a19.4,19.4,0,0,1-.5,3.1,3.2,3.2,0,0,1-2.8,2.3,3.2,3.2,0,0,1-3.1-1.8,6.2,6.2,0,0,1-.9-3.6c.1-2.7,1.8-5.3,3.7-5.1S250.8,481.1,250.8,483.6Z" transform="translate(-6 -6)"/><path class="cls-7" d="M412.3,483.5a9.2,9.2,0,0,1,.4-2.4c.6-1.6,1.8-2.8,3.6-2.3s3.3,3.3,3.1,5.8-1,4.2-3.6,4.5-3-1.2-3.4-3A20.6,20.6,0,0,1,412.3,483.5Z" transform="translate(-6 -6)"/><path class="cls-8" d="M392.8,486.5c-.4,1.6-1.2,3.1-3.1,2.9a1.8,1.8,0,0,1-1.6-2.3c.4-1.8,1.9-2.4,3.6-2.6S392.6,485.8,392.8,486.5Z" transform="translate(-6 -6)"/><path class="cls-9" d="M272.2,480.9c-.8-.5-2.5.7-2.5-.9s1.4-2.1,2.7-2.1,2.7.9,2.6,2.2S273.1,480.4,272.2,480.9Z" transform="translate(-6 -6)"/><path class="cls-9" d="M455.9,481c-.9-.6-2.7.7-2.7-1.1s1.4-2,2.8-2,2.5.8,2.4,2S456.6,480.3,455.9,481Z" transform="translate(-6 -6)"/></g></svg>